<svg width="185" height="210" xmlns="http://www.w3.org/2000/svg" xmlns:xlink="http://www.w3.org/1999/xlink" xml:space="preserve" overflow="hidden"><defs><clipPath id="clip0"><rect x="221" y="2238" width="185" height="210"/></clipPath><clipPath id="clip1"><rect x="221" y="2238" width="186" height="183"/></clipPath></defs><g clip-path="url(#clip0)" transform="translate(-221 -2238)"><g><path d="M92.1092 209.838C102.467 209.838 111.274 203.222 114.548 193.986 115.207 192.127 113.853 190.17 111.88 190.17L72.3384 190.17C70.3665 190.17 69.0118 192.127 69.6704 193.986 72.944 203.222 81.7512 209.838 92.1092 209.838" fill="#800000" transform="matrix(1.00432 0 0 1 221 2238.09)"/></g><g clip-path="url(#clip1)"><path d="M181.971 162.162 175.963 151.781C169.515 140.64 166.12 127.996 166.12 115.124L166.12 90.5738C166.12 55.2175 141.319 25.6698 108.17 18.3309L108.17 16.062C108.17 7.19161 100.98 0.00129137 92.1092 0.00129137 83.2388 0.00129137 76.0485 7.19161 76.0485 16.062L76.0485 18.3309C42.8991 25.6698 18.0985 55.2175 18.0985 90.5738L18.0985 115.124C18.0985 127.996 14.7035 140.64 8.2557 151.781L2.24698 162.162C-3.54867 170.663 2.53882 182.182 12.8271 182.182L171.391 182.182C181.68 182.182 187.767 170.663 181.971 162.162" fill="#800000" transform="matrix(1.00432 0 0 1 221 2238.09)"/></g><path d="M179.159 41.2591C179.159 60.5805 163.496 76.2448 144.174 76.2448 124.852 76.2448 109.189 60.5805 109.189 41.2591 109.189 21.9377 124.852 6.27474 144.174 6.27474 163.496 6.27474 179.159 21.9377 179.159 41.2591" fill="#006666" transform="matrix(1.00432 0 0 1 221 2238.09)"/><path d="M149.571 22.5188 149.571 60.0007 140.218 60.0007 140.218 39.9058C140.218 37.0041 140.148 35.2594 140.01 34.6731 139.87 34.0869 139.488 33.6426 138.863 33.3418 138.238 33.0409 136.845 32.8898 134.684 32.8898L133.758 32.8898 133.758 28.5198C138.281 27.5474 141.714 25.5471 144.061 22.5188L149.571 22.5188" fill="#FFFFFF" transform="matrix(1.00432 0 0 1 221 2238.09)"/></g></svg>