<svg width="501" height="510" xmlns="http://www.w3.org/2000/svg" xmlns:xlink="http://www.w3.org/1999/xlink" xml:space="preserve" overflow="hidden"><g transform="translate(-3103 -2558)"><path d="M364.522 108.109C364.522 103.504 360.789 99.7704 356.184 99.7704 343.657 99.7704 320.115 99.7704 307.588 99.7704 302.982 99.7704 299.25 103.504 299.25 108.109 299.25 147.176 299.25 311.848 299.25 350.916 299.25 355.521 302.982 359.255 307.588 359.255 320.115 359.255 343.657 359.255 356.184 359.255 360.789 359.255 364.522 355.521 364.522 350.916 364.522 311.848 364.522 147.176 364.522 108.109Z" fill="#8AC9FE" fill-rule="evenodd" transform="matrix(1.00077 0 0 1 3087.15 2546.85)"/><path d="M343.677 359.255C348.281 359.255 352.015 355.521 352.015 350.916L352.015 108.109C352.015 103.504 348.281 99.7704 343.677 99.7704L356.184 99.7704C360.789 99.7704 364.522 103.504 364.522 108.109L364.522 350.916C364.522 355.521 360.789 359.255 356.184 359.255L343.677 359.255Z" fill="#60B7FF" fill-rule="evenodd" transform="matrix(1.00077 0 0 1 3087.15 2546.85)"/><path d="M243.289 176.683C243.289 172.079 239.556 168.345 234.951 168.345 218.751 168.345 202.553 168.345 186.354 168.345 181.749 168.345 178.015 172.079 178.015 176.683 178.015 238.451 178.015 289.148 178.015 350.916 178.015 355.521 181.749 359.255 186.354 359.255 202.553 359.255 218.751 359.255 234.951 359.255 239.556 359.255 243.289 355.521 243.289 350.916 243.289 289.148 243.289 238.451 243.289 176.683Z" fill="#6CF5C2" fill-rule="evenodd" transform="matrix(1.00077 0 0 1 3087.15 2546.85)"/><path d="M222.443 359.255C227.048 359.255 230.782 355.521 230.782 350.916L230.782 176.683C230.782 172.079 227.048 168.345 222.443 168.345L234.951 168.345C239.556 168.345 243.289 172.079 243.289 176.683L243.289 350.916C243.289 355.521 239.556 359.255 234.951 359.255L222.443 359.255Z" fill="#00E499" fill-rule="evenodd" transform="matrix(1.00077 0 0 1 3087.15 2546.85)"/><path d="M56.6976 242.296C56.6976 240.084 57.5763 237.963 59.1397 236.4 60.7032 234.835 62.8243 233.957 65.036 233.957 77.581 233.957 101.172 233.957 113.717 233.957 115.928 233.957 118.049 234.835 119.613 236.4 121.177 237.963 122.056 240.084 122.056 242.296 122.056 265.07 122.056 328.141 122.056 350.916 122.056 353.127 121.177 355.248 119.613 356.812 118.049 358.376 115.928 359.255 113.717 359.255 101.172 359.255 77.581 359.255 65.036 359.255 62.8243 359.255 60.7032 358.376 59.1397 356.812 57.5763 355.248 56.6976 353.127 56.6976 350.916 56.6976 328.141 56.6976 265.07 56.6976 242.296Z" fill="#FE646F" fill-rule="evenodd" transform="matrix(1.00077 0 0 1 3087.15 2546.85)"/><path d="M101.21 233.957 113.717 233.957C115.928 233.957 118.049 234.835 119.613 236.4 121.177 237.963 122.056 240.084 122.056 242.296L122.056 350.916C122.056 353.127 121.177 355.248 119.613 356.812 118.049 358.376 115.928 359.255 113.717 359.255L101.21 359.255C103.421 359.255 105.542 358.376 107.105 356.812 108.67 355.248 109.548 353.127 109.548 350.916L109.548 242.296C109.548 240.084 108.67 237.963 107.105 236.4 105.542 234.835 103.421 233.957 101.21 233.957Z" fill="#FD4755" fill-rule="evenodd" transform="matrix(1.00077 0 0 1 3087.15 2546.85)"/><path d="M339.248 41.4708C254.068 115.869 161.103 163.061 73.1367 193.683 68.7903 195.196 64.0333 192.895 62.5209 188.549 61.0075 184.202 63.3079 179.445 67.6542 177.933 153.593 148.017 244.426 101.987 327.68 29.4312L317.68 29.9826C313.084 30.2359 309.148 26.7109 308.895 22.1154 308.642 17.521 312.167 13.5842 316.762 13.3309L350.366 11.4798C352.863 11.3422 355.29 12.3324 356.978 14.1783 358.666 16.0242 359.436 18.5299 359.076 21.0053L354.229 54.3369C353.567 58.8906 349.331 62.0498 344.777 61.388 340.223 60.7261 337.063 56.4902 337.726 51.9365L339.248 41.4708ZM24.1823 367.593C19.5805 367.593 15.8439 363.856 15.8439 359.255 15.8439 354.652 19.5805 350.916 24.1823 350.916L397.037 350.916C401.64 350.916 405.375 354.652 405.375 359.255 405.375 363.856 401.64 367.593 397.037 367.593L24.1823 367.593Z" fill="#A79BA7" fill-rule="evenodd" transform="matrix(1.00077 0 0 1 3087.15 2546.85)"/><path d="M303.538 173.595 384.762 220.46C387.262 221.91 388.662 224.36 388.662 227.212L388.662 321.039C388.662 323.89 387.262 326.34 384.762 327.791L303.538 374.705C301.036 376.105 298.236 376.105 295.735 374.705L214.511 327.791C212.011 326.34 210.61 323.89 210.61 321.039L210.61 227.212C210.61 224.36 212.011 221.91 214.511 220.46L295.735 173.595C298.236 172.145 301.036 172.145 303.538 173.595Z" fill="#F2D1A5" fill-rule="evenodd" transform="matrix(1.00077 0 0 1 3087.15 2546.85)"/><path d="M303.538 173.595 384.762 220.46C386.011 221.209 387.012 222.16 387.662 223.31L299.637 274.125 211.611 223.31C212.31 222.16 213.261 221.209 214.511 220.46L295.735 173.595C298.236 172.145 301.036 172.145 303.538 173.595Z" fill="#E3A76F" fill-rule="evenodd" transform="matrix(1.00077 0 0 1 3087.15 2546.85)"/><path d="M387.662 223.31C388.312 224.46 388.662 225.811 388.662 227.212L388.662 321.039C388.662 323.89 387.262 326.34 384.762 327.791L303.538 374.705C302.287 375.405 300.986 375.755 299.637 375.755L299.637 274.125 387.662 223.31Z" fill="#ECBA78" fill-rule="evenodd" transform="matrix(1.00077 0 0 1 3087.15 2546.85)"/><path d="M242.22 240.965 268.027 255.87 357.053 204.504 331.245 189.55 242.22 240.965Z" fill="#C48958" fill-rule="evenodd" transform="matrix(1.00077 0 0 1 3087.15 2546.85)"/><path d="M262.225 292.98 246.12 283.728C243.619 282.277 242.22 279.827 242.22 276.976L242.22 240.965 268.027 255.87 268.027 289.629C268.027 291.08 267.326 292.28 266.077 292.98 264.876 293.731 263.425 293.731 262.225 292.98Z" fill="#E3A76F" fill-rule="evenodd" transform="matrix(1.00077 0 0 1 3087.15 2546.85)"/><path d="M423.29 414.73C419.218 420.555 414.424 425.829 409.037 430.439L447.809 468.448 462.572 453.233 423.29 414.73Z" fill="#A79BA7" fill-rule="evenodd" transform="matrix(1.00077 0 0 1 3087.15 2546.85)"/><path d="M423.559 414.475C422.795 416.978 421.367 418.873 419.331 420.131L457.849 458.408 462.572 453.233 423.559 414.475Z" fill="#837683" fill-rule="evenodd" transform="matrix(1.00077 0 0 1 3087.15 2546.85)"/><path d="M496.919 517.797 513.576 500.617C516.502 497.605 516.432 492.741 513.42 489.813L467.267 445.032C464.254 442.104 459.39 442.19 456.463 445.201L439.806 462.368C436.879 465.38 436.949 470.243 439.962 473.171L486.115 517.953C489.127 520.88 493.991 520.809 496.919 517.797Z" fill="#F1BA84" fill-rule="evenodd" transform="matrix(1.00077 0 0 1 3087.15 2546.85)"/><path d="M460.436 445.032 506.59 489.813C509.602 492.741 509.672 497.605 506.745 500.617L490.089 517.797C489.466 518.419 488.773 518.929 488.024 519.296 490.922 520.738 494.542 520.23 496.919 517.797L513.576 500.617C516.502 497.605 516.432 492.741 513.42 489.813L467.267 445.032C464.891 442.727 461.356 442.289 458.528 443.689 459.22 444.028 459.857 444.48 460.436 445.032Z" fill="#E3A76F" fill-rule="evenodd" transform="matrix(1.00077 0 0 1 3087.15 2546.85)"/><path d="M360.324 288.401C406.732 288.401 444.359 326.014 444.359 372.437 444.359 418.845 406.732 456.471 360.324 456.471 313.901 456.471 276.289 418.845 276.289 372.437 276.289 326.014 313.901 288.401 360.324 288.401Z" fill="#8AC9FE" fill-rule="evenodd" transform="matrix(1.00077 0 0 1 3087.15 2546.85)"/><path d="M360.324 288.401C406.732 288.401 444.359 326.014 444.359 372.437 444.359 418.845 406.732 456.471 360.324 456.471 358.952 456.471 357.595 456.429 356.237 456.372 400.75 454.237 436.2 417.473 436.2 372.437 436.2 327.385 400.75 290.621 356.237 288.5 357.595 288.43 358.952 288.401 360.324 288.401Z" fill="#60B7FF" fill-rule="evenodd" transform="matrix(1.00077 0 0 1 3087.15 2546.85)"/><path d="M360.324 307.589C396.127 307.589 425.171 336.619 425.171 372.437 425.171 408.239 396.127 437.283 360.324 437.283 324.507 437.283 295.477 408.239 295.477 372.437 295.477 336.619 324.507 307.589 360.324 307.589Z" fill="#ECEFF1" fill-rule="evenodd" transform="matrix(1.00077 0 0 1 3087.15 2546.85)"/><path d="M360.324 307.589C361.795 307.589 363.251 307.632 364.708 307.731 330.926 309.993 304.244 338.09 304.244 372.437 304.244 406.769 330.926 434.879 364.708 437.128 363.251 437.227 361.795 437.283 360.324 437.283 324.507 437.283 295.477 408.253 295.477 372.437 295.477 336.619 324.507 307.589 360.324 307.589Z" fill="#D1D1D6" fill-rule="evenodd" transform="matrix(1.00077 0 0 1 3087.15 2546.85)"/></g></svg>