<svg width="238" height="247" xmlns="http://www.w3.org/2000/svg" xmlns:xlink="http://www.w3.org/1999/xlink" xml:space="preserve" overflow="hidden"><g transform="translate(-215 -1777)"><path d="M40.959 208.275 76.7847 208.275 76.7847 260.961 40.959 260.961Z" fill="#800000" transform="matrix(1.00736 0 0 1 195.554 1763.04)"/><path d="M83.6685 194.797 119.494 194.797 119.494 260.961 83.6685 260.961Z" fill="#800000" transform="matrix(1.00736 0 0 1 195.554 1763.04)"/><path d="M125.938 160.072 161.758 160.072 161.758 260.961 125.938 260.961Z" fill="#800000" transform="matrix(1.00736 0 0 1 195.554 1763.04)"/><path d="M168.207 133.278 204.033 133.278 204.033 260.961 168.207 260.961Z" fill="#800000" transform="matrix(1.00736 0 0 1 195.554 1763.04)"/><path d="M45.7433 38.8917C45.7433 25.1258 56.9028 13.9662 70.6688 13.9662 84.4348 13.9662 95.5943 25.1258 95.5943 38.8917 95.5943 52.6577 84.4348 63.8172 70.6688 63.8172 56.9102 63.7995 45.761 52.6503 45.7433 38.8917Z" fill="#800000" transform="matrix(1.00736 0 0 1 195.554 1763.04)"/><path d="M129.433 107.585C129.433 113.812 124.385 118.861 118.157 118.861L95.1808 118.861C94.525 118.862 93.8844 118.664 93.3444 118.291L93.774 129.761 114.146 138.798C115.422 139.36 116.192 140.68 116.052 142.068L112.831 174.237C112.271 180.003 107.418 184.399 101.624 184.385 101.243 184.385 100.862 184.385 100.481 184.332 94.2843 183.708 89.7671 178.179 90.3911 171.982 90.3911 171.982 90.3912 171.982 90.3912 171.982L92.045 155.545 68.9559 153.505 60.676 195.307C59.6377 200.59 55.0095 204.402 49.6255 204.408 48.89 204.407 48.1564 204.335 47.4347 204.194 41.3242 202.992 37.3449 197.064 38.5468 190.953 38.5472 190.951 38.5476 190.949 38.5481 190.947L48.863 138.658 48.863 105.329 41.9631 111.053 41.9631 128.263C41.9631 134.49 36.9146 139.539 30.687 139.539 24.4594 139.539 19.411 134.49 19.411 128.263L19.411 101.308C19.4104 100.309 19.8725 99.3674 20.6621 98.757L50.0443 76.0759 60.3646 67.2537C60.9468 66.7559 61.6873 66.4818 62.4534 66.4805L78.9003 66.4805C80.0994 66.483 81.198 67.1512 81.7516 68.2149L91.8302 87.5453 102.236 96.287 118.13 96.287C124.358 96.2721 129.418 101.309 129.433 107.536 129.433 107.552 129.433 107.568 129.433 107.585Z" fill="#800000" transform="matrix(1.00736 0 0 1 195.554 1763.04)"/><path d="M189.599 73.2945 211.561 76.9727C207.621 88.7884 194.849 95.1734 183.033 91.2339 171.217 87.2944 164.832 74.5222 168.772 62.7064 172.712 50.8906 185.484 44.5057 197.299 48.4452 204.215 50.7509 209.59 56.2572 211.727 63.2266L189.626 66.9369C187.87 67.2265 186.682 68.8845 186.972 70.6401 187.196 72.0022 188.264 73.0698 189.626 73.2945Z" fill="#800000" transform="matrix(1.00736 0 0 1 195.554 1763.04)"/><path d="M248.482 72.7253 255.516 77.821 234.065 74.2234 218.418 71.5977 213.633 70.7923 209.595 70.1157 213.709 69.4284 218.509 68.623 233.936 66.0456 234.285 65.9919 255.516 62.4265 248.482 67.5222C247.041 68.5657 246.718 70.5799 247.762 72.0212 247.962 72.2979 248.205 72.5411 248.482 72.7414Z" fill="#800000" transform="matrix(1.00736 0 0 1 195.554 1763.04)"/><path d="M248.482 72.7253 255.516 77.821 234.065 74.2234 218.418 71.5977C217.954 70.8303 217.187 70.2942 216.307 70.1211 217.217 69.9582 218.013 69.4127 218.493 68.623L233.936 66.0456 234.285 65.9919 255.516 62.4265 248.482 67.5222C247.041 68.5657 246.718 70.5799 247.762 72.0212 247.962 72.2979 248.205 72.5411 248.482 72.7414Z" fill="#800000" transform="matrix(1.00736 0 0 1 195.554 1763.04)"/><path d="M217.945 78.0519 229.667 80.0065C224.03 101.828 201.77 114.948 179.948 109.311 158.126 103.673 145.007 81.4136 150.644 59.592 156.281 37.7704 178.541 24.6504 200.363 30.2877 214.948 34.0556 226.271 45.5521 229.817 60.1928L218.117 62.158C213.874 46.7166 197.916 37.6387 182.475 41.882 167.033 46.1254 157.955 62.083 162.199 77.5244 166.442 92.9658 182.4 102.044 197.841 97.8004 207.514 95.1422 215.126 87.673 217.967 78.0519Z" fill="#800000" transform="matrix(1.00736 0 0 1 195.554 1763.04)"/></g></svg>