<svg width="208" height="190" xmlns="http://www.w3.org/2000/svg" xmlns:xlink="http://www.w3.org/1999/xlink" xml:space="preserve" overflow="hidden"><g transform="translate(-198 -951)"><path d="M194.845 71.4052 162.818 47.8469 162.818 19.7453C162.818 15.3395 159.242 11.7761 154.842 11.7761L141.881 11.7761C137.475 11.7761 133.905 15.3457 133.905 19.7453L133.905 26.5726 109.485 8.61206C104.187 4.70543 95.5127 4.70543 90.2144 8.61206L4.8552 71.4052C-0.443084 75.3056-1.58512 82.838 2.31527 88.1426L4.67423 91.344C8.56838 96.6485 16.1008 97.7968 21.3929 93.8964L90.2144 43.2475C95.5127 39.3471 104.187 39.3471 109.485 43.2475L178.301 93.8964C183.599 97.7968 191.125 96.6423 195.019 91.344L197.385 88.1426C201.279 82.838 200.137 75.3056 194.845 71.4052Z" fill="#800000" transform="matrix(1 0 0 1.0048 202.462 945.984)"/><path d="M169.308 98.3023 109.467 54.075C104.175 50.1621 95.5252 50.1621 90.2332 54.075L30.3918 98.3023C25.0998 102.215 20.7688 107.938 20.7688 111.039L20.7688 116.637 20.7688 120.875 20.7688 175.162C20.7688 185.571 29.6929 194.015 40.7076 194.015L77.2527 194.015 77.2527 137.294C77.2527 132.913 80.841 129.331 85.2219 129.331L114.465 129.331C118.846 129.331 122.435 132.913 122.435 137.294L122.435 194.015 158.986 194.015C169.995 194.015 178.912 185.571 178.912 175.162L178.912 120.881 178.912 116.637 178.912 111.039C178.919 107.938 174.6 102.215 169.308 98.3023Z" fill="#800000" transform="matrix(1 0 0 1.0048 202.462 945.984)"/></g></svg>