<svg width="153" height="153" xmlns="http://www.w3.org/2000/svg" xmlns:xlink="http://www.w3.org/1999/xlink" xml:space="preserve" overflow="hidden"><defs><clipPath id="clip0"><rect x="5973" y="173" width="153" height="153"/></clipPath></defs><g clip-path="url(#clip0)" transform="translate(-5973 -173)"><path d="M6049.5 326C6091.75 326 6126 291.75 6126 249.5 6126 207.25 6091.75 173 6049.5 173 6007.25 173 5973 207.25 5973 249.5 5973 291.75 6007.25 326 6049.5 326ZM6061.74 253.58 6022.63 253.58 6029.94 260.895 6024.17 266.665 6009.9 252.385C6008.3 250.792 6008.3 248.208 6009.9 246.615L6024.17 232.335 6029.94 238.105 6022.63 245.42 6061.74 245.42 6061.74 253.58ZM6037.26 212.78C6035.01 212.78 6033.18 214.607 6033.18 216.86L6033.18 229.1 6041.34 229.1 6041.34 220.94 6082.14 220.94 6082.14 278.06 6041.34 278.06 6041.34 269.9 6033.18 269.9 6033.18 282.14C6033.18 284.393 6035.01 286.22 6037.26 286.22L6086.22 286.22C6088.47 286.22 6090.3 284.393 6090.3 282.14L6090.3 216.86C6090.3 214.607 6088.47 212.78 6086.22 212.78L6037.26 212.78Z" fill="#800000" fill-rule="evenodd"/></g></svg>