<svg width="213" height="213" xmlns="http://www.w3.org/2000/svg" xmlns:xlink="http://www.w3.org/1999/xlink" xml:space="preserve" overflow="hidden"><g transform="translate(-221 -2662)"><path d="M337.922 2662.77C331.08 2662.1 324.186 2662.1 317.344 2662.77L312.79 2679.45C307.024 2680.41 301.367 2681.93 295.897 2683.98L283.606 2671.81C277.35 2674.65 271.385 2678.1 265.789 2682.1L270.187 2698.82C265.672 2702.54 261.535 2706.67 257.818 2711.19L241.095 2706.79C237.097 2712.39 233.65 2718.35 230.806 2724.61L242.975 2736.9C240.926 2742.37 239.411 2748.03 238.451 2753.79L221.767 2758.35C221.103 2765.19 221.103 2772.08 221.767 2778.92L238.451 2783.48C239.411 2789.24 240.926 2794.9 242.975 2800.37L230.806 2812.66C233.65 2818.92 237.097 2824.88 241.095 2830.48L257.818 2826.08C261.535 2830.6 265.672 2834.73 270.187 2838.45L265.789 2855.17C271.385 2859.17 277.35 2862.62 283.606 2865.46L295.897 2853.29C301.367 2855.34 307.024 2856.86 312.79 2857.82L317.344 2874.5C324.186 2875.16 331.08 2875.16 337.922 2874.5L342.476 2857.82C348.242 2856.86 353.899 2855.34 359.369 2853.29L371.659 2865.46C377.915 2862.62 383.88 2859.17 389.477 2855.17L385.079 2838.45C389.594 2834.73 393.731 2830.6 397.447 2826.08L414.171 2830.48C418.169 2824.88 421.616 2818.92 424.46 2812.66L412.291 2800.37C414.34 2794.9 415.855 2789.24 416.815 2783.48L433.499 2778.92C434.163 2772.08 434.163 2765.19 433.499 2758.35L416.815 2753.79C415.855 2748.03 414.34 2742.37 412.291 2736.9L424.46 2724.61C421.616 2718.35 418.169 2712.39 414.171 2706.79L397.447 2711.19C393.731 2706.67 389.594 2702.54 385.079 2698.82L389.477 2682.1C383.88 2678.1 377.915 2674.65 371.659 2671.81L359.369 2683.98C353.899 2681.93 348.242 2680.41 342.476 2679.45L337.922 2662.77ZM327.633 2712.01C358.883 2712.01 384.254 2737.39 384.254 2768.63 384.254 2799.88 358.883 2825.26 327.633 2825.26 296.383 2825.26 271.012 2799.88 271.012 2768.63 271.012 2737.39 296.383 2712.01 327.633 2712.01Z" fill="#800000" fill-rule="evenodd"/></g></svg>