<svg width="533" height="494" xmlns="http://www.w3.org/2000/svg" xmlns:xlink="http://www.w3.org/1999/xlink" xml:space="preserve" overflow="hidden"><g transform="translate(-4351 -1583)"><path d="M243.456 253.969 243.456 475.809 182.031 475.809 182.031 315.513 243.456 253.969ZM463.878 165.139 463.878 475.809 402.453 475.809 402.453 226.564 406.469 222.548 463.878 165.139ZM353.667 250.307 353.667 475.809 292.242 475.809 292.242 214.516 305.118 201.64 353.667 250.307Z" fill="#0C9DBD" fill-rule="evenodd" transform="matrix(1.00222 0 0 1 4314.43 1527.6)"/><path d="M305.118 151.909 370.323 217.232 476.399 111.156 452.892 87.649 510.538 71.5839 568.183 55.4008 552.118 113.046 535.935 170.691 512.427 147.184 406.469 253.261 370.323 289.289 305.118 223.966 154.862 374.221 118.834 338.075Z" fill="#D04D4D" fill-rule="evenodd" transform="matrix(1.00222 0 0 1 4314.43 1527.6)"/><path d="M65.7958 317.639 93.2009 345.044C88.2396 348.942 83.3965 353.195 78.9077 357.683 74.3008 362.29 70.1664 367.015 66.2683 371.977L38.8632 344.572 65.7958 317.639ZM249.835 317.639 222.43 345.044C227.391 348.942 232.234 353.195 236.723 357.683 241.33 362.29 245.582 367.015 249.363 371.977L276.768 344.572 249.835 317.639Z" fill="#FCB13B" fill-rule="evenodd" transform="matrix(1.00222 0 0 1 4314.43 1527.6)"/><path d="M129.347 252.198 186.165 252.198C195.261 252.198 202.703 259.639 202.703 268.735L202.703 268.735C202.703 277.831 195.261 285.273 186.165 285.273L129.347 285.273C120.252 285.273 112.81 277.831 112.81 268.735L112.81 268.735C112.81 259.639 120.252 252.198 129.347 252.198L129.347 252.198Z" fill="#FCB13B" fill-rule="evenodd" transform="matrix(1.00222 0 0 1 4314.43 1527.6)"/><path d="M173.408 285.273 173.408 316.93C168.329 316.34 163.131 315.985 157.815 315.985 152.5 315.985 147.302 316.34 142.223 316.93L142.223 285.273 173.408 285.273Z" fill="#FFCD05" fill-rule="evenodd" transform="matrix(1.00222 0 0 1 4314.43 1527.6)"/><path d="M157.815 307.008C224.674 307.008 279.012 361.227 279.012 428.204 279.012 495.181 224.792 549.401 157.815 549.401 90.8384 549.401 36.6188 495.063 36.6188 428.204 36.6188 361.227 90.8384 307.008 157.815 307.008L157.815 307.008Z" fill="#FFCD05" fill-rule="evenodd" transform="matrix(1.00222 0 0 1 4314.43 1527.6)"/><path d="M157.815 337.484C207.782 337.484 248.417 378.119 248.417 428.086 248.417 478.171 207.782 518.688 157.815 518.688 107.73 518.688 67.2133 478.053 67.2133 428.086 67.2133 378.119 107.73 337.484 157.815 337.484L157.815 337.484Z" fill="#FFFFFF" fill-rule="evenodd" transform="matrix(1.00222 0 0 1 4314.43 1527.6)"/><path d="M153.09 352.84C153.09 350.242 155.217 348.115 157.815 348.115 160.414 348.115 162.54 350.242 162.54 352.84L162.54 358.628C162.54 361.227 160.414 363.353 157.815 363.353 155.217 363.353 153.09 361.227 153.09 358.628L153.09 352.84ZM225.383 461.752C227.627 463.051 228.454 465.886 227.037 468.249 225.737 470.493 222.902 471.32 220.658 469.902L215.579 466.949C213.334 465.65 212.507 462.815 213.925 460.571 215.224 458.326 218.059 457.499 220.304 458.917L225.383 461.752ZM233.061 423.479C235.66 423.479 237.786 425.605 237.786 428.204 237.786 430.803 235.66 432.929 233.061 432.929L227.273 432.929C224.674 432.929 222.548 430.803 222.548 428.204 222.548 425.605 224.674 423.479 227.273 423.479L233.061 423.479ZM220.658 386.388C222.902 385.088 225.737 385.797 227.037 388.16 228.336 390.404 227.627 393.239 225.383 394.538L220.304 397.373C218.059 398.673 215.106 397.964 213.925 395.72 212.626 393.475 213.334 390.64 215.579 389.341L220.658 386.388ZM116.117 365.362C114.818 363.117 115.527 360.282 117.889 358.983 120.133 357.683 122.968 358.392 124.268 360.637L127.221 365.716C128.52 367.96 127.693 370.795 125.449 372.095 123.205 373.394 120.37 372.685 119.07 370.323L116.117 365.362ZM90.2477 394.657C88.0033 393.357 87.1765 390.522 88.4758 388.278 89.7752 386.033 92.6102 385.207 94.8546 386.506L99.934 389.459C102.178 390.758 103.005 393.594 101.706 395.838 100.407 398.082 97.5715 398.909 95.3271 397.492L90.2477 394.657ZM82.5696 432.929C79.9708 432.929 77.8446 430.803 77.8446 428.204 77.8446 425.605 79.9708 423.479 82.5696 423.479L88.3577 423.479C90.9565 423.479 93.0827 425.605 93.0827 428.204 93.0827 430.803 90.9565 432.929 88.3577 432.929L82.5696 432.929ZM94.9727 469.902C92.7284 471.202 89.8933 470.375 88.594 468.131 87.2946 465.886 88.1215 463.051 90.3659 461.752L95.4452 458.917C97.6896 457.617 100.525 458.326 101.824 460.571 103.123 462.815 102.297 465.768 100.052 466.949L94.9727 469.902ZM124.268 495.654C122.968 497.898 120.133 498.725 117.889 497.426 115.645 496.126 114.818 493.173 116.235 490.929L119.07 485.849C120.37 483.605 123.205 482.778 125.567 484.196 127.812 485.495 128.638 488.33 127.221 490.574L124.268 495.654ZM162.54 503.45C162.54 506.049 160.414 508.175 157.815 508.175 155.217 508.175 153.09 506.049 153.09 503.45L153.09 497.662C153.09 495.063 155.217 492.937 157.815 492.937 160.414 492.937 162.54 495.063 162.54 497.662L162.54 503.45ZM199.514 490.929C200.813 493.173 200.104 496.126 197.86 497.426 195.615 498.725 192.78 498.016 191.481 495.654L188.528 490.574C187.229 488.33 187.937 485.495 190.182 484.196 192.426 482.896 195.379 483.605 196.679 485.849L199.514 490.929ZM191.363 360.637C192.662 358.392 195.497 357.565 197.742 358.983 199.986 360.282 200.813 363.117 199.396 365.362L196.56 370.441C195.261 372.685 192.426 373.512 190.064 372.095 187.819 370.795 186.992 367.96 188.41 365.716L191.363 360.637Z" fill="#D04D4D" transform="matrix(1.00222 0 0 1 4314.43 1527.6)"/><path d="M153.09 375.048C153.09 372.449 155.217 370.323 157.815 370.323 160.414 370.323 162.54 372.449 162.54 375.048L162.659 425.605 194.316 445.923C196.442 447.341 197.151 450.294 195.734 452.42 194.316 454.664 191.363 455.255 189.237 453.837L155.335 432.102 155.335 432.102C154.035 431.275 153.209 429.858 153.209 428.204L153.09 375.048Z" fill="#D04D4D" transform="matrix(1.00222 0 0 1 4314.43 1527.6)"/><path d="M157.815 409.659C167.974 409.659 176.361 417.927 176.361 428.204 176.361 438.481 168.092 446.75 157.815 446.75 147.538 446.75 139.27 438.481 139.27 428.204 139.27 417.927 147.538 409.659 157.815 409.659L157.815 409.659Z" fill="#D04D4D" fill-rule="evenodd" transform="matrix(1.00222 0 0 1 4314.43 1527.6)"/><path d="M387.451 307.008C454.428 307.008 508.648 361.227 508.648 428.204 508.648 495.181 454.428 549.401 387.451 549.401 320.474 549.401 266.254 495.181 266.254 428.204 266.373 361.227 320.592 307.008 387.451 307.008L387.451 307.008Z" fill="#686868" fill-rule="evenodd" transform="matrix(1.00222 0 0 1 4314.43 1527.6)"/><path d="M406.115 364.417C416.51 367.488 425.842 372.922 433.52 380.245L453.719 373.63 468.012 398.319 452.184 412.375C454.782 422.77 454.782 433.638 452.184 444.033L468.012 458.208 453.601 482.778 433.402 476.163C425.842 483.487 416.392 488.921 405.997 491.992L401.626 512.782C392.058 512.782 382.608 512.782 373.04 512.782L368.669 491.992C358.274 488.921 348.942 483.487 341.264 476.163L321.065 482.778 307.126 458.09 322.955 443.915C320.356 433.52 320.356 422.652 322.955 412.257L307.126 398.319 321.419 373.63 341.618 380.245C349.178 372.922 358.628 367.488 369.023 364.417L373.394 343.626C382.962 343.626 392.412 343.626 401.98 343.626L406.115 364.417ZM387.451 391.585C407.65 391.585 423.952 407.887 423.952 428.086 423.952 448.285 407.65 464.587 387.451 464.587 367.252 464.587 350.95 448.285 350.95 428.086 350.95 408.005 367.252 391.585 387.451 391.585L387.451 391.585Z" fill="#B3B4B4" fill-rule="evenodd" transform="matrix(1.00222 0 0 1 4314.43 1527.6)"/></g></svg>