<svg width="224" height="221" xmlns="http://www.w3.org/2000/svg" xmlns:xlink="http://www.w3.org/1999/xlink" xml:space="preserve" overflow="hidden"><g transform="translate(-182 -1322)"><path d="M146.336 4.3731C145.527 3.49353 144.34 3.09084 143.15 3.26746L132.111 5.04425C130.176 5.35863 128.854 7.18135 129.165 9.12416 129.459 10.9469 131.08 12.1655 132.903 12.056L116.668 27.3054 74.0671 27.3054C73.2299 27.3054 72.421 27.5986 71.7817 28.1355L45.9387 49.8314C44.4339 51.096 44.2396 53.3391 45.5007 54.8439 46.2036 55.681 47.2139 56.1155 48.2277 56.1155 49.0366 56.1155 49.8455 55.8435 50.5132 55.2819L75.3671 34.4196 118.081 34.4196C118.985 34.4196 119.854 34.0734 120.515 33.4553L137.53 17.4712C137.459 19.1208 138.487 20.6574 140.155 21.0742 140.444 21.1484 140.734 21.1802 141.02 21.1802 142.613 21.1802 144.065 20.0993 144.468 18.4815L147.17 7.64056C147.46 6.4784 147.145 5.25266 146.336 4.3731Z" fill="#800000" transform="matrix(1 0 0 1.01896 179.02 1318.76)"/><path d="M205.613 10.8162 177.577 10.8162C175.613 10.8162 174.02 12.4093 174.02 14.3733L174.02 87.1935 161.949 87.1935 161.949 36.5532C161.949 34.5891 160.356 32.996 158.392 32.996L130.37 32.996C128.406 32.996 126.813 34.5891 126.813 36.5532L126.813 87.1899 114.739 87.1899 114.739 50.0963C114.739 48.1323 113.146 46.5392 111.182 46.5392L83.1454 46.5392C81.1814 46.5392 79.5882 48.1323 79.5882 50.0963L79.5882 90.7506C79.5882 92.7146 81.1814 94.3077 83.1454 94.3077L205.61 94.3077C207.574 94.3077 209.167 92.7146 209.167 90.7506L209.167 14.3733C209.17 12.4057 207.577 10.8162 205.613 10.8162Z" fill="#800000" transform="matrix(1 0 0 1.01896 179.02 1318.76)"/><path d="M209.146 113.743 144.015 135.972C143.005 136.414 141.945 136.771 140.843 137.043L140.843 137.043 140.836 137.043 140.833 137.043C140.833 137.043 140.833 137.043 140.833 137.043 140.501 137.12 140.19 137.138 139.84 137.149L103.803 137.149C101.683 137.149 99.9701 135.432 99.9701 133.312 99.9701 131.196 101.687 129.48 103.803 129.48L136.297 129.48C136.297 129.48 147.986 128.907 147.986 118.123 147.986 112.404 144.379 107.858 135.241 107L84.961 107C63.6219 107 50.6509 111.468 38.9728 135.877L5.51759 215.405C5.51759 215.405 4.60977 217.023 5.83197 218.581 7.05418 220.138 8.96873 219.852 8.96873 219.852L64.3354 219.852C64.3354 219.852 66.416 220.001 68.0055 218.658 69.4503 217.436 69.9201 215.674 69.9201 215.674L83.5092 172.854C83.9967 171.229 85.4909 170.113 87.1864 170.113L141.122 170.113C154.249 170.113 197.81 140.935 212.127 132.369L215.14 130.568C223.222 126 225.264 120.423 223.742 116.904 222.314 113.63 217.143 111.238 209.146 113.743Z" fill="#800000" transform="matrix(1 0 0 1.01896 179.02 1318.76)"/></g></svg>